<?xml version="1.0" standalone="no"?>
<!DOCTYPE svg PUBLIC "-//W3C//DTD SVG 20010904//EN"
 "http://www.w3.org/TR/2001/REC-SVG-20010904/DTD/svg10.dtd">
<svg version="1.0" xmlns="http://www.w3.org/2000/svg"
 width="1980.000000pt" height="2048.000000pt" viewBox="0 0 1980.000000 2048.000000"
 preserveAspectRatio="xMidYMid meet">

<g transform="translate(0.000000,2048.000000) scale(0.100000,-0.100000)"
fill="#000000" stroke="none">
<path d="M9126 18739 c-26 -11 -69 -34 -95 -51 -62 -43 -203 -186 -196 -198 3
-5 0 -7 -8 -5 -8 4 -628 -610 -1675 -1660 l-1661 -1665 -2143 -3 c-2085 -2
-2144 -3 -2181 -21 -46 -23 -82 -74 -96 -136 -7 -30 -11 -1389 -11 -4166 l0
-4120 26 -53 c17 -34 41 -62 67 -79 l41 -27 1016 -3 1016 -2 34 22 c65 44 73
65 81 205 4 71 13 209 19 308 72 1201 312 2067 692 2505 53 61 139 132 194
160 45 22 56 23 454 29 391 6 410 7 437 27 30 22 95 114 220 312 92 146 111
175 268 417 66 101 136 209 155 240 61 96 233 363 282 438 26 40 65 101 88
136 l41 64 -1078 -6 c-697 -4 -1110 -10 -1168 -17 -368 -46 -689 -189 -983
-438 l-65 -55 7 239 c14 480 70 2027 79 2154 l2 35 1785 5 c1717 5 1786 6
1820 24 19 10 179 161 355 335 176 174 520 512 765 751 245 239 544 532 665
651 121 120 254 250 295 289 41 40 271 265 510 500 558 548 825 807 876 853
l41 37 150 -128 c82 -70 173 -147 203 -172 30 -25 101 -85 158 -135 57 -49
118 -101 136 -115 18 -14 72 -59 120 -100 49 -41 107 -90 130 -108 22 -19 43
-37 46 -40 3 -4 30 -27 60 -52 30 -24 84 -70 120 -100 36 -31 101 -87 145
-124 44 -38 91 -78 105 -90 14 -11 81 -68 150 -126 69 -58 127 -107 130 -110
3 -3 34 -30 70 -60 35 -30 130 -111 210 -180 80 -69 189 -161 244 -205 l98
-79 -5 -56 c-7 -86 -61 -178 -178 -305 -20 -22 -80 -89 -134 -150 -54 -60
-112 -126 -129 -145 -163 -183 -479 -540 -746 -845 -179 -203 -392 -446 -474
-540 -82 -93 -206 -235 -275 -315 -69 -79 -213 -243 -320 -365 -198 -226 -297
-339 -441 -505 -45 -52 -97 -111 -114 -130 -18 -19 -124 -141 -236 -270 -112
-129 -251 -289 -309 -355 -158 -181 -215 -246 -247 -285 -16 -19 -31 -37 -35
-40 -6 -5 -53 -59 -154 -175 -33 -38 -78 -90 -101 -115 -22 -25 -98 -112 -169
-195 -137 -159 -161 -186 -240 -275 -27 -30 -75 -84 -105 -120 -30 -35 -150
-172 -265 -304 -116 -133 -280 -321 -365 -420 -85 -98 -165 -190 -178 -205
-68 -76 -531 -609 -697 -801 -146 -169 -286 -329 -349 -400 -17 -19 -56 -64
-86 -100 -30 -36 -59 -70 -65 -76 -5 -6 -35 -39 -65 -74 -63 -73 -207 -238
-254 -290 -17 -19 -67 -78 -111 -130 -44 -52 -82 -97 -86 -100 -7 -7 -324
-372 -499 -575 -80 -93 -194 -225 -255 -295 -60 -70 -189 -218 -285 -330 -96
-112 -222 -258 -280 -325 -58 -67 -141 -164 -185 -216 -44 -52 -88 -103 -98
-114 -48 -53 -126 -153 -139 -180 -35 -68 -38 -152 -38 -922 0 -842 -1 -823
65 -900 19 -23 56 -52 82 -64 l48 -23 4780 2 c2629 1 4788 2 4798 2 9 0 26 15
37 33 20 32 20 59 20 3030 0 1648 3 2997 8 2997 4 0 12 -10 18 -23 6 -12 108
-205 227 -430 119 -224 217 -409 217 -411 0 -2 19 -39 43 -82 24 -44 97 -182
162 -309 65 -126 121 -234 125 -240 4 -5 65 -122 135 -260 70 -137 162 -317
205 -400 185 -359 277 -539 428 -835 88 -173 220 -434 294 -580 75 -146 316
-625 538 -1065 640 -1271 616 -1225 663 -1269 65 -60 154 -114 225 -136 62
-19 94 -20 946 -20 847 0 883 1 923 20 50 22 80 66 89 129 4 25 2 930 -5 2011
-6 1081 -14 2529 -18 3219 l-6 1253 -61 50 c-34 28 -95 78 -136 113 -41 35
-147 122 -235 195 -205 169 -191 158 -255 210 -30 25 -66 55 -80 66 -14 12
-108 90 -210 174 -102 83 -210 173 -240 198 -106 91 -343 282 -349 282 -3 0
-5 -1295 -4 -2877 3 -2459 1 -2875 -11 -2863 -12 13 -39 61 -181 325 -21 39
-79 147 -130 240 -51 94 -202 373 -335 620 -133 248 -259 482 -280 520 -21 39
-69 129 -107 200 -39 72 -86 160 -106 198 -88 160 -222 412 -309 577 -28 52
-81 151 -118 220 -145 267 -340 633 -388 725 -14 28 -51 97 -82 155 -32 58
-77 143 -102 190 -122 229 -224 420 -251 470 -16 30 -92 174 -169 320 -77 146
-153 288 -167 315 -15 28 -85 160 -156 293 -103 194 -138 252 -172 282 -49 43
-112 75 -175 90 -27 6 -382 10 -932 10 l-888 0 -39 -22 c-22 -12 -45 -36 -55
-56 -15 -32 -16 -264 -13 -2951 3 -2830 3 -2917 -15 -2944 -10 -15 -40 -40
-65 -55 l-46 -27 -890 -7 c-1703 -13 -4628 -28 -4632 -24 -8 8 10 31 99 128
110 119 129 143 120 153 -4 5 -2 5 4 2 6 -3 66 60 135 140 68 80 160 187 204
237 44 51 103 119 131 151 191 224 315 368 464 539 58 67 160 184 225 261 66
77 124 145 130 151 15 17 100 114 246 284 74 85 148 171 165 190 18 19 89 103
160 185 145 171 231 270 289 335 22 25 63 72 91 105 28 33 100 116 159 185 59
69 117 136 128 150 90 105 205 238 222 256 11 12 31 34 44 50 21 26 150 176
222 259 14 16 48 55 75 85 48 54 83 95 215 249 35 41 96 111 134 156 39 44
151 175 250 290 99 116 242 281 318 368 80 91 135 162 131 169 -4 6 -3 8 3 5
6 -4 25 10 43 31 18 20 55 64 84 96 28 33 50 66 50 73 -1 7 2 11 6 8 5 -3 108
111 230 252 123 142 275 319 340 393 64 74 177 205 250 290 73 85 216 252 319
370 103 118 256 296 341 395 85 99 166 194 181 210 122 139 186 213 254 295
44 52 82 97 85 100 3 3 35 39 70 80 36 41 67 77 70 80 3 3 43 49 89 103 46 54
96 112 111 130 49 56 311 360 364 421 28 33 96 112 151 175 56 64 186 215 290
336 103 121 191 222 194 225 3 3 28 32 56 65 27 33 63 74 78 90 47 49 80 131
80 194 -2 109 -48 170 -293 391 -58 52 -127 116 -155 141 -145 133 -205 187
-360 324 -94 82 -188 166 -210 186 -45 41 -80 72 -966 848 -354 310 -659 577
-677 594 -33 29 -159 138 -216 187 -16 14 -41 36 -55 49 -14 13 -50 44 -80 70
-30 25 -91 78 -135 117 -174 151 -475 414 -555 482 -136 118 -212 184 -271
237 -30 28 -82 73 -115 100 -33 27 -115 98 -182 158 -75 66 -127 106 -134 101
-7 -4 -9 -3 -6 3 6 9 -41 54 -173 167 -26 21 -165 143 -186 161 -150 134 -284
245 -316 263 -53 28 -143 29 -212 1z"/>
</g>
</svg>
